<?xml version="1.0" encoding="UTF-8"?>
<svg id="Layer_1" data-name="Layer 1" xmlns="http://www.w3.org/2000/svg" width="1.5in" height="1.39in" viewBox="0 0 108 100">
  <g opacity="1">
    <path fill="currentColor" d="M84.04,57.56c-4.91-2.45-11.44-4.31-18.96-5.21l-8.16-14.32c-.6-1.06-1.69-1.66-2.92-1.66s-2.29.59-2.89,1.66l-8.15,14.32c-7.53.89-14.06,2.75-18.97,5.21L51.91,8.62c.43-.76,1.23-1.23,2.09-1.23s1.66.47,2.12,1.23l27.92,48.94Z"/>
    <path fill="currentColor" d="M85.47,79.57c-5.9,6.63-16.94,13.03-31.47,13.03-12.53,0-23.67-6-30.21-12.37,7.23,3.68,17.97,5.97,30.21,5.97,12.96,0,24.3-2.59,31.47-6.63Z"/>
    <path fill="currentColor" d="M66.77,62.3c-.6,1.66-5.54,3.88-12.77,3.88s-12.14-2.22-12.73-3.88l.2-.33,3.01-5.34h.03l.56-1,.47-.83.59-1.06h.03l.4-.76h.03l.56-1.03,6.83-11.97,6.83,11.97.6,1.03.43.76.6,1.06h.03l.43.8h.03l.56,1.03,3.05,5.34.2.33Z"/>
    <path fill="currentColor" d="M90.17,68.34v-.03l-.06-.36c-.27-1.23-1.03-2.49-2.26-3.68-3.48-3.51-10.74-6.6-20.59-8.09l.6,1.06,2.15,3.78.07.1c.17.27.23.56.23.86,0,1.73-.93,3.15-2.52,4.28-.86.67-1.95,1.23-3.18,1.69-2.98,1.13-6.83,1.73-10.61,1.73s-7.63-.6-10.58-1.73c-1.23-.46-2.32-1.03-3.18-1.69-1.59-1.13-2.52-2.55-2.52-4.28,0-.3.06-.59.23-.86l.06-.1,2.16-3.81.59-1.03c-9.84,1.46-17.14,4.57-20.62,8.09-1.23,1.19-1.99,2.45-2.26,3.68l-.07.36v.03c-.03.2-.03.4-.03.6,0,.13,0,.23.03.36v.26c.89,6.47,15.19,13.16,36.17,13.16s35.28-6.7,36.17-13.16v-.26c.03-.14.03-.23.03-.36,0-.2,0-.4-.03-.6ZM80.1,67.94c-1.86,6.33-14.29,9.72-26.09,9.72s-24.2-3.38-26.09-9.72c-.17-.53-.27-1.09-.27-1.69,0-.96.8-1.73,1.76-1.73s1.72.76,1.72,1.73c0,.56.23,1.13.63,1.69,2.35,3.22,11.11,6.23,22.25,6.23s19.89-3.01,22.25-6.23c.39-.56.63-1.13.63-1.69,0-.96.8-1.73,1.76-1.73s1.72.76,1.72,1.73c0,.6-.1,1.16-.26,1.69Z"/>
  </g>
</svg>